# xmcd
#
# Track frame offsets:
#	150
#	18792
#	34737
#	54595
#	74409
#	90187
#	106791
#	126338
#	141243
#	156330
#	172742
#	198140
#	218757
#	239268
#	257830
#	276037
#	291998
#	310522
#	325725
#
# Disc length: 4464 seconds
#
# Revision: 0
# Processed by: cddbd v1.5.2PL0 Copyright (c) Steve Scherf et al.
# Submitted via: SynApp - FreeCDDB Version: 2.4
#
DISCID=03116e13
DTITLE=Nightwish - 3
DYEAR=3
DGENRE=3
TTITLE0=Sleeping Sun
TTITLE1=Within Temptation - Memories
TTITLE2=Die Toten Hosen - 10 kleine Jägermeister
TTITLE3=Puhdys - Melanie
TTITLE4=X-Perience - A Nerverending Dream
TTITLE5=Falco - Mutter, Der Mann mit dem Koks
TTITLE6=Haddaway - Life
TTITLE7=Die Prinzen - Alles nur geklaut
TTITLE8=U 96 - Night in motion
TTITLE9=Slade - Far far away
TTITLE10=Duran Duran - Ordinary world
TTITLE11=Scorpions - Send Me An Angel
TTITLE12=REM - Drive
TTITLE13=Chris Isaak - Wicked Game
TTITLE14=Camouflage - Love Is A Shield
TTITLE15=Mike Oldfield - Innocent
TTITLE16=Black - Everything's coming up roses
TTITLE17=Roxette - The centre of the heart
TTITLE18=Puhdys - Kein Paradies
EXTD=
EXTT0=
EXTT1=
EXTT2=
EXTT3=
EXTT4=
EXTT5=
EXTT6=
EXTT7=
EXTT8=
EXTT9=
EXTT10=
EXTT11=
EXTT12=
EXTT13=
EXTT14=
EXTT15=
EXTT16=
EXTT17=
EXTT18=
PLAYORDER=
